<?xml version="1.0" encoding="utf-8"?><svg version="1.1" id="Layer_1" xmlns="http://www.w3.org/2000/svg" xmlns:xlink="http://www.w3.org/1999/xlink" x="0px" y="0px" viewBox="0 0 122.88 112.71" style="enable-background:new 0 0 122.88 112.71" xml:space="preserve"><g><path d="M66.41,96.48h21.91c1.76-1.75,3.69-3.57,5.65-5.42c4.11-3.89,8.4-7.95,12.81-13.03c5.04-5.81,5.58-7.82,7.11-13.51 c0.29-1.07,0.61-2.27,1.03-3.76l2.62-9.21l0.03-0.1c1.4-4.1,1.51-6.81,0.93-8.37c-0.18-0.48-0.41-0.8-0.68-0.97 c-0.21-0.14-0.49-0.19-0.78-0.16c-0.68,0.07-1.45,0.5-2.15,1.27l-7.78,18.53c-0.07,0.17-0.17,0.33-0.28,0.47 c-0.46,0.83-1.08,1.64-1.88,2.41l-13.8,15.39c-0.75,0.84-2.04,0.91-2.87,0.16c-0.84-0.75-0.91-2.04-0.16-2.87l13.81-15.39 c0.06-0.07,0.12-0.14,0.19-0.2c1.43-1.36,1.88-2.83,1.63-3.9c-0.08-0.33-0.22-0.61-0.42-0.8c-0.19-0.17-0.44-0.29-0.75-0.32v0 c-1.23-0.13-3.05,0.78-5.25,3.39l0,0c-0.06,0.07-0.13,0.14-0.2,0.21l-5.35,4.72l-0.03,0.03c-5.79,5.48-8.28,6.78-12.82,9.15 c-0.95,0.5-1.99,1.04-3.28,1.74c-0.51,0.28-1.01,0.62-1.5,0.99c-0.52,0.4-1.02,0.81-1.49,1.21c-2.4,2.02-3.66,3.66-4.38,5.47 c-0.75,1.88-1.02,4.17-1.39,7.31c-0.15,1.27-0.26,2.52-0.35,3.77C66.47,95.3,66.44,95.9,66.41,96.48L66.41,96.48z M89.86,30.67 c-0.04,0.57-0.06,1.05-0.06,1.27c0,0.53-0.37,0.97-0.86,1.09l-1.45,0.44c-0.11,0.04-0.22,0.06-0.33,0.06h-0.24 c-0.51,0-0.96-0.35-1.07-0.83l-1.27-3.88v-0.02l-0.24-0.74l-2.15,3.88c-0.09,0.17-0.22,0.29-0.37,0.4l-1.12,0.72 c-0.52,0.33-1.2,0.17-1.53-0.35c-0.07-0.13-0.13-0.28-0.17-0.42l-1.1-6.14l-1.65-1.18l-3.88-0.7c0.13,0.2,0.28,0.42,0.4,0.62 c0.7,1.07,1.34,2.06,1.56,3.09c0.35,1.65-0.28,3.03-3.02,4.03c0.07,0.05,0.17,0.09,0.24,0.16c1.07,0.83,1.32,2.02-1.01,5.09 c-0.59,0.77-1.1,1.45-1.53,2.04c-0.33,0.46-0.64,0.92-0.94,1.34l0.53,3.82c0.07,0.51-0.06,1.01-0.39,1.51 c-0.24,0.37-0.61,0.7-1.1,1.01c-0.33,0.2-0.61,0.42-0.83,0.64c-0.09,0.09-0.16,0.17-0.24,0.26l0.24,1.08 c0.11,0.53-0.16,1.05-0.64,1.25l-0.4,0.18c-0.07,0.31-0.2,0.63-0.35,0.92c-0.24,0.48-0.57,0.96-0.99,1.42 c-0.46,0.5-0.96,0.86-1.49,1.12c-0.57,0.26-1.16,0.4-1.78,0.4h-1.95c-0.61,0-1.1-0.5-1.1-1.1c0-0.5-0.05-1.03-0.18-1.6 c-0.13-0.59-0.31-1.21-0.57-1.88c-0.29-0.75-0.52-1.43-0.66-2.04c-0.17-0.64-0.24-1.21-0.24-1.69c0-0.42,0.04-0.81,0.11-1.14 c0.09-0.4,0.22-0.74,0.42-1.03c0.02-0.04,0.04-0.11,0.07-0.26c0.04-0.22,0.05-0.51,0.05-0.88c0-0.29-0.05-0.59-0.15-0.9 c-0.11-0.35-0.28-0.72-0.5-1.12c-0.28-0.5-0.5-0.88-0.63-1.2c-0.2-0.42-0.31-0.77-0.31-1.03c0-1.8-0.63-2.21-1.49-2.21 c-0.52,0-1.1,0.07-1.71,0.17c-0.75,0.11-1.54,0.2-2.32,0.2c-0.59,0-1.16-0.26-1.71-0.79c-0.4-0.39-0.85-0.96-1.29-1.69 c-0.4-0.66-0.7-1.2-0.92-1.6c-0.28-0.55-0.42-0.97-0.42-1.27v-0.85c-0.04-3.07-0.06-5.98,2.91-8.13c1.23-1.75,2.34-2.89,3.66-3.6 c1.38-0.75,2.92-1.01,5.02-1.01c0.61,0,1.1,0.5,1.1,1.1v1.56l1.32,0.59l0.02-0.09c0.13-0.59,0.72-0.97,1.31-0.85 c0.4,0.09,0.79,0.2,1.12,0.31c0.37,0.13,0.68,0.28,0.94,0.46c0.15,0.09,0.39,0.17,0.7,0.22c0.33,0.06,0.7,0.07,1.01,0.02 c0.17-0.04,0.28-0.07,0.31-0.11v-0.04c0.04-0.17,0.05-0.33,0.07-0.5l-1.32,0.11c-0.48,0.04-0.9-0.22-1.08-0.63 c-0.44-0.92-1.34-1.38-2.5-1.97c-1.23-0.63-2.68-1.38-4.27-2.87c-5.3,1.88-6.99,2.13-7.41,0.96c-0.26-0.7,0.11-1.25,0.59-1.99 c0.44-0.68,1.05-1.64,1.05-2.54c0-0.48,0.31-0.88,0.74-1.05l4.45-2.04c-0.48-0.09-1.07-0.18-1.56-2.59 c-0.09-0.5,0.15-0.97,0.57-1.2c0.35-0.18,0.75-0.44,1.23-0.75c0.48-0.31,1.05-0.74,1.71-1.23l0.04-0.04 c-2.26,0.35-4.45,0.97-6.53,1.88c-1.75,0.75-3.37,1.64-4.87,2.63c-1.51,1.01-2.91,2.15-4.19,3.44c-1.29,1.29-2.43,2.68-3.44,4.19 c-1.01,1.51-1.89,3.13-2.63,4.87c0,0.02-0.02,0.04-0.02,0.06c-0.72,1.71-1.27,3.47-1.64,5.3C33.19,26.7,33,28.61,33,30.58 c0,1.97,0.18,3.88,0.55,5.72c0.02,0.09,0.04,0.2,0.06,0.29l5.13,2.45c0.39,0.18,0.61,0.55,0.63,0.96c0.06,1.47-0.33,2.56-0.74,3.66 c-0.29,0.83-0.61,1.67-0.64,2.67c0,0.11-0.02,0.2-0.06,0.29c0.99,1.47,2.11,2.83,3.38,4.08c1.29,1.29,2.68,2.43,4.19,3.44 c1.51,1.01,3.13,1.89,4.87,2.63c0.02,0,0.04,0.02,0.06,0.02c1.71,0.72,3.48,1.27,5.3,1.64c1.84,0.37,3.75,0.55,5.72,0.55 s3.88-0.18,5.72-0.55c1.86-0.37,3.64-0.92,5.35-1.65c1.75-0.75,3.37-1.64,4.87-2.63c1.51-1.01,2.9-2.15,4.19-3.44 c1.29-1.29,2.43-2.68,3.44-4.19c1.01-1.51,1.89-3.13,2.63-4.87c0-0.02,0.02-0.04,0.02-0.05c0.72-1.71,1.27-3.48,1.64-5.3 c0.37-1.84,0.55-3.73,0.55-5.7V30.67L89.86,30.67z M49.48,2.39C53.21,0.79,57.2,0,61.43,0c2.11,0,4.16,0.2,6.16,0.61 c1.97,0.39,3.88,0.99,5.74,1.77c0.02,0,0.04,0.02,0.06,0.02c1.86,0.79,3.59,1.75,5.22,2.83c1.64,1.08,3.14,2.34,4.52,3.71 c1.38,1.38,2.63,2.89,3.71,4.52c1.1,1.64,2.04,3.38,2.83,5.22c0.81,1.88,1.4,3.81,1.8,5.79c0.4,1.99,0.61,4.05,0.61,6.16 c0,2.11-0.2,4.16-0.61,6.16c-0.39,1.97-0.99,3.88-1.77,5.74c0,0.02-0.02,0.04-0.02,0.06c-0.79,1.86-1.75,3.59-2.83,5.22 c-1.08,1.64-2.34,3.14-3.71,4.52c-1.38,1.38-2.89,2.63-4.52,3.71c-1.64,1.1-3.38,2.04-5.22,2.83c-1.88,0.81-3.81,1.4-5.79,1.8 c-1.99,0.4-4.05,0.61-6.16,0.61c-2.11,0-4.16-0.2-6.16-0.61c-1.97-0.39-3.88-0.99-5.74-1.77c-0.02,0-0.04-0.02-0.06-0.02 c-1.86-0.79-3.59-1.75-5.22-2.83c-1.64-1.08-3.14-2.34-4.52-3.71c-1.38-1.38-2.63-2.89-3.71-4.52c-1.1-1.64-2.04-3.38-2.83-5.22 c-0.81-1.88-1.4-3.81-1.8-5.79c-0.4-1.99-0.61-4.05-0.61-6.16c0-2.11,0.2-4.16,0.61-6.16c0.39-1.97,0.99-3.88,1.77-5.74 c0-0.02,0.02-0.04,0.02-0.06c0.79-1.86,1.75-3.59,2.83-5.22c1.08-1.64,2.34-3.14,3.71-4.52c1.38-1.38,2.89-2.63,4.52-3.71 c1.64-1.1,3.38-2.04,5.22-2.83V2.39L49.48,2.39z M35.6,41.74c0.24,0.55,0.5,1.1,0.79,1.65c0.06-0.15,0.09-0.28,0.15-0.42 c0.26-0.72,0.52-1.42,0.59-2.19l-2.32-1.1C35.04,40.38,35.3,41.06,35.6,41.74L35.6,41.74z M74.04,5.35 c-1.03-0.52-2.1-0.97-3.2-1.36c-4.12,0.96-5.3,0.39-6.62-0.26c-0.66-0.31-1.38-0.66-2.96-0.66h-0.94c-0.09,0-0.29,0.07-0.61,0.24 c-0.4,0.22-0.92,0.55-1.53,1.03c-0.66,0.5-1.25,0.94-1.8,1.31c-0.31,0.22-0.61,0.4-0.88,0.57c0.53,0.13,0.94,0.46,1.21,2.92 c0.06,0.46-0.2,0.92-0.64,1.12l-4.19,1.91c-0.2,1.21-0.86,2.24-1.36,3c-0.02,0.02-0.02,0.04-0.04,0.04c0.53-0.31,1.8-1.4,4.85-2.48 c0.4-0.18,0.92-0.09,1.23,0.26c1.49,1.56,2.96,2.3,4.17,2.92c1.29,0.66,2.34,1.2,3.11,2.32l1.78-0.17c0.07-0.02,0.13-0.02,0.2-0.02 c0.61,0,1.1,0.5,1.1,1.1c0,0.35-0.02,0.7-0.05,1.07c-0.04,0.33-0.07,0.68-0.13,1.03v0.04c-0.05,0.29-0.17,0.57-0.31,0.81 c-0.39,0.61-1.03,0.96-1.75,1.1c-0.59,0.11-1.23,0.09-1.82,0c-0.57-0.09-1.12-0.29-1.51-0.55c-0.07-0.06-0.17-0.11-0.28-0.15 l-0.06,0.24c-0.02,0.07-0.04,0.15-0.07,0.22c-0.24,0.55-0.9,0.81-1.45,0.57l-3.16-1.38c-0.44-0.15-0.74-0.57-0.74-1.05v-1.16 c-1.16,0.07-2.08,0.29-2.87,0.72c-1.03,0.55-1.93,1.51-2.98,3.03c-0.07,0.13-0.18,0.24-0.31,0.33c-2.17,1.49-2.13,3.88-2.11,6.4 c0,0.52,0.02,0.72,0.02,0.86c0,0.06,0.06,0.04,0.18,0.26c0.18,0.37,0.46,0.85,0.83,1.47c0.33,0.55,0.64,0.96,0.92,1.21 c0.13,0.13,0.2,0.18,0.2,0.18c0.66,0,1.36-0.09,2.02-0.18c0.7-0.09,1.38-0.18,2-0.18c2.15,0,3.7,0.79,3.7,4.41 c0,0.07,0.04-0.04,0.09,0.09c0.13,0.26,0.31,0.61,0.55,1.05c0.29,0.53,0.53,1.05,0.7,1.56c0.17,0.53,0.26,1.05,0.26,1.54 c0,0.48-0.04,0.92-0.11,1.29c-0.07,0.46-0.22,0.81-0.42,1.1c-0.04,0.04-0.06,0.13-0.07,0.24c-0.04,0.18-0.06,0.4-0.06,0.68 c0,0.31,0.06,0.7,0.17,1.16c0.13,0.5,0.31,1.08,0.57,1.78c0.29,0.75,0.51,1.49,0.66,2.21c0.07,0.33,0.13,0.64,0.17,0.94h0.92 c0.31,0,0.61-0.05,0.86-0.18c0.28-0.13,0.55-0.33,0.81-0.61c0.28-0.29,0.5-0.61,0.64-0.92c0.13-0.28,0.22-0.53,0.24-0.79 c0.02-0.4,0.28-0.77,0.66-0.94l0.11-0.06l-0.15-0.7c-0.05-0.28-0.02-0.57,0.15-0.83c0.22-0.35,0.52-0.7,0.85-1.01 c0.33-0.31,0.7-0.61,1.12-0.88c0.24-0.17,0.4-0.29,0.5-0.42l-0.57-4.14c-0.06-0.28,0-0.57,0.17-0.83c0.31-0.5,0.74-1.08,1.21-1.77 c0.48-0.66,0.99-1.36,1.56-2.1c1.23-1.6,1.45-1.97,1.42-1.99c-0.07-0.05-0.26-0.13-0.46-0.22c-0.75-0.31-1.58-0.64-1.99-1.77 l-0.06-0.17c-0.13-0.59,0.26-1.18,0.86-1.31c3-0.63,3.75-1.29,3.59-2.04c-0.13-0.63-0.66-1.45-1.25-2.34 c-0.57-0.88-1.18-1.82-1.58-2.83c-0.09-0.2-0.13-0.44-0.09-0.66c0.11-0.61,0.68-1.01,1.29-0.9l6.34,1.14 c0.15,0.02,0.31,0.09,0.44,0.18l2.15,1.53c0.28,0.17,0.48,0.44,0.53,0.77l0.81,4.54l2.81-5.04c0.13-0.28,0.37-0.5,0.68-0.59 c0.59-0.18,1.21,0.15,1.4,0.72l1.01,3.18L87.65,31c0.04-0.61,0.09-1.4,0.2-2.19c0.11-0.81,0.26-1.62,0.44-2.22 c0.15-0.46,0.33-0.85,0.57-1.12c-0.17-1.05-0.39-2.1-0.68-3.11c-0.35-1.23-0.79-2.43-1.31-3.59c-0.53-1.18-1.12-2.3-1.8-3.37 c-0.68-1.08-1.4-2.1-2.19-3.05c-0.81-0.96-1.67-1.86-2.59-2.7c-0.92-0.83-1.91-1.6-2.96-2.34c-1.05-0.72-2.13-1.36-3.27-1.93 L74.04,5.35L74.04,5.35z M66.4,44.77v-0.04c0,0.02,0.02,0.07,0.02,0.06L66.4,44.77L66.4,44.77z M50.16,15.21 c0.04,0.11,0.13,0.11,0.31,0H50.16L50.16,15.21z M50.16,15.21L50.16,15.21L50.16,15.21L50.16,15.21z M56.47,96.48H34.55 c-1.76-1.75-3.69-3.57-5.65-5.42c-4.11-3.89-8.4-7.95-12.81-13.03c-5.04-5.81-5.58-7.82-7.11-13.51c-0.29-1.07-0.61-2.27-1.03-3.76 l-2.62-9.21l-0.03-0.1c-1.4-4.1-1.51-6.81-0.93-8.37c0.18-0.48,0.41-0.8,0.68-0.97c0.21-0.14,0.49-0.19,0.78-0.16 c0.68,0.07,1.45,0.5,2.15,1.27l7.78,18.53c0.07,0.17,0.17,0.33,0.28,0.47c0.46,0.83,1.08,1.64,1.88,2.41l13.8,15.39 c0.75,0.84,2.04,0.91,2.87,0.16c0.84-0.75,0.91-2.04,0.16-2.87L20.96,61.91c-0.06-0.07-0.12-0.14-0.19-0.2 c-1.43-1.36-1.88-2.83-1.63-3.9c0.08-0.33,0.22-0.61,0.42-0.8c0.19-0.17,0.44-0.29,0.75-0.32v0c1.23-0.13,3.05,0.78,5.25,3.39l0,0 c0.06,0.07,0.13,0.14,0.21,0.21l5.35,4.72l0.03,0.03c5.79,5.48,8.28,6.78,12.82,9.15c0.95,0.5,1.99,1.04,3.28,1.74 c0.51,0.28,1.01,0.62,1.5,0.99c0.52,0.4,1.02,0.81,1.49,1.21c2.4,2.02,3.66,3.66,4.38,5.47c0.75,1.88,1.02,4.17,1.39,7.31 c0.15,1.27,0.26,2.52,0.35,3.77C56.41,95.3,56.44,95.9,56.47,96.48L56.47,96.48z M29.45,97.18c-0.31,0.36-0.5,0.83-0.5,1.34v12.14 c0,1.13,0.92,2.04,2.04,2.04h27.58c1.13,0,2.04-0.92,2.04-2.04V98.41c0-1.3-0.08-2.7-0.17-4c-0.09-1.33-0.21-2.65-0.36-3.96 c-0.4-3.43-0.7-5.94-1.66-8.35c-0.99-2.47-2.58-4.6-5.53-7.09c-0.54-0.46-1.09-0.92-1.67-1.35c-0.61-0.46-1.27-0.9-2.01-1.31 c-1.2-0.65-2.32-1.24-3.34-1.78c-4.2-2.2-6.5-3.4-11.91-8.52c-0.04-0.04-0.09-0.08-0.13-0.11l-5.22-4.61 c-3.19-3.73-6.31-4.97-8.71-4.71l-0.01,0v0c-1.17,0.12-2.17,0.58-2.97,1.28l-5.27-12.56l-0.01,0c-0.08-0.18-0.18-0.35-0.31-0.51 c-1.46-1.75-3.31-2.77-5.08-2.95c-1.21-0.12-2.38,0.14-3.4,0.8c-0.97,0.63-1.77,1.61-2.27,2.96c-0.88,2.35-0.86,6,0.86,11.05 l2.6,9.15c0.38,1.32,0.71,2.59,1.02,3.71c1.7,6.35,2.3,8.6,7.97,15.12c4.49,5.17,8.88,9.33,13.1,13.31 C27.23,95.07,28.33,96.11,29.45,97.18L29.45,97.18z M33.35,100.57c0.27,0.06,0.55,0.06,0.83,0h22.34v8.06H33.03v-8.06H33.35 L33.35,100.57z M93.43,97.18c0.31,0.36,0.5,0.83,0.5,1.34v12.14c0,1.13-0.92,2.04-2.04,2.04H64.32c-1.13,0-2.04-0.92-2.04-2.04 V98.41c0-0.07,0-0.15,0.01-0.22c0.03-1.31,0.08-2.58,0.16-3.78c0.09-1.33,0.21-2.65,0.36-3.96c0.4-3.43,0.7-5.94,1.66-8.35 c0.99-2.47,2.58-4.6,5.53-7.09c0.54-0.46,1.09-0.92,1.67-1.35c0.61-0.46,1.27-0.9,2.01-1.31c1.2-0.65,2.32-1.24,3.34-1.78 c4.2-2.2,6.5-3.4,11.91-8.52c0.04-0.04,0.09-0.08,0.13-0.11l5.22-4.61c3.19-3.73,6.31-4.97,8.7-4.71l0.01,0v0 c1.17,0.12,2.17,0.58,2.97,1.28l5.27-12.56l0.01,0c0.08-0.18,0.18-0.35,0.31-0.51c1.46-1.75,3.31-2.77,5.08-2.95 c1.21-0.12,2.38,0.14,3.4,0.8c0.97,0.63,1.77,1.61,2.27,2.96c0.88,2.35,0.86,6-0.86,11.05l-2.6,9.15 c-0.38,1.32-0.71,2.59-1.02,3.71c-1.7,6.35-2.3,8.6-7.97,15.12c-4.49,5.17-8.88,9.33-13.1,13.31 C95.65,95.07,94.55,96.11,93.43,97.18L93.43,97.18z M89.53,100.57c-0.27,0.06-0.55,0.06-0.83,0H66.36v8.06h23.49v-8.06H89.53 L89.53,100.57z"/></g></svg>