<svg id="Layer_1" data-name="Layer 1" xmlns="http://www.w3.org/2000/svg" viewBox="0 0 122.88 92.5"><defs><style>.cls-1{fill-rule:evenodd;}</style></defs><title>information-technology</title><path class="cls-1" d="M3.1,86.3H14.57A2.14,2.14,0,0,1,14,84.8v-47a2.15,2.15,0,0,1,2.15-2.15h90.1a2.16,2.16,0,0,1,2.15,2.15V84.8a2.19,2.19,0,0,1-.61,1.5h12a3.1,3.1,0,0,1,0,6.2H3.1a3.1,3.1,0,0,1,0-6.2Zm85-64.3H82v9.56H77.73V19.86a2.13,2.13,0,0,1,2.14-2.14h8.26A6.28,6.28,0,1,1,88.07,22ZM44,23.5v8.06H39.71V25.64H34.8a6.28,6.28,0,1,1,0-4.29h7.1a2.12,2.12,0,0,1,1.51.63A2.15,2.15,0,0,1,44,23.5ZM33.06,0a6.28,6.28,0,1,0,5.75,8.81H51.37V31.56h4.28V6.68a2.13,2.13,0,0,0-2.14-2.15H39.09a6.27,6.27,0,0,0-6-4.53ZM67.85.1a6.28,6.28,0,0,0-2.14,12.19V31.56H70V12.29A6.28,6.28,0,0,0,67.85.1ZM51.12,48a10.17,10.17,0,0,1,1.56-5.44H70.2A10.15,10.15,0,0,1,71.76,48a10.32,10.32,0,0,1-20.64,0Zm40.11.39v2.16a3.69,3.69,0,0,1-3.67,3.68H83.79a22.82,22.82,0,0,1-2.27,6L84,62.69a3.68,3.68,0,0,1,0,5.19l-3,3.06a3.69,3.69,0,0,1-5.2,0l-2.29-2.29a22.65,22.65,0,0,1-6.21,2.69v3.12a3.7,3.7,0,0,1-3.68,3.68H59.28a3.7,3.7,0,0,1-3.68-3.68V71.38a22.67,22.67,0,0,1-6.27-2.67L47.1,70.94a3.68,3.68,0,0,1-5.19,0l-3.06-3.06a3.68,3.68,0,0,1,0-5.19l2.4-2.41a22.63,22.63,0,0,1-2.32-6.09H35.32a3.69,3.69,0,0,1-3.67-3.68V46.18a3.68,3.68,0,0,1,3.5-3.66H47.46a14.87,14.87,0,0,0-.89,5.06c0,.26,0,.51,0,.77s0,.51,0,.76a14.79,14.79,0,1,0,29.58,0c0-.25,0-.51,0-.76s0-.51,0-.77a14.87,14.87,0,0,0-.89-5.06H87.73a3.68,3.68,0,0,1,3.5,3.66v2.17ZM17.64,39H105V84.2H17.64V39ZM57.9,87.83H65A1.21,1.21,0,0,1,66.18,89h0A1.21,1.21,0,0,1,65,90.24H57.9A1.21,1.21,0,0,1,56.7,89h0a1.2,1.2,0,0,1,1.2-1.2Z"/></svg>